<svg width="320" height="320" viewBox="0 0 320 320" version="1.1" xmlns="http://www.w3.org/2000/svg" xmlns:xlink="http://www.w3.org/1999/xlink"><title>mask-icon</title><desc>Created with Sketch.</desc><g id="Page-1" stroke="none" stroke-width="1" fill="none" fill-rule="evenodd"><g id="mask-icon" fill="#fff"><path d="M-5.68434189e-14,296.289669 L-5.68434189e-14,97.9132299 C-5.68434189e-14,84.8188042 10.4642499,74.2028986 23.3716123,74.2028986 L52.9756546,74.2028986 C55.1269521,74.2028986 56.8709233,75.9721447 56.8709233,78.1546204 L56.8709233,109.768396 C56.8709233,111.950871 55.1269521,113.720117 52.9756546,113.720117 L46.7432246,113.720117 C42.4405108,113.720117 38.9526872,117.25928 38.9526872,121.623561 L38.9526872,272.579337 C38.9526872,276.944409 42.4405108,280.482781 46.7432246,280.482781 L195.54249,280.482781 C199.845203,280.482781 203.333027,276.944409 203.333027,272.579337 L203.333027,263.885549 C203.333027,261.703073 205.076998,259.933827 207.228296,259.933827 L238.390446,259.933827 C240.541743,259.933827 242.285714,261.703073 242.285714,263.885549 L242.285714,296.289669 C242.285714,309.384094 231.821464,320 218.914102,320 L23.3716123,320 C10.4642499,320 -5.68434189e-14,309.384094 -5.68434189e-14,296.289669 Z M101.085898,0 C88.1785356,0 77.7142857,10.6159057 77.7142857,23.7103313 L77.7142857,222.08677 C77.7142857,235.181986 88.1785356,245.797101 101.085898,245.797101 L296.628388,245.797101 C309.536529,245.797101 320,235.181986 320,222.08677 L320,23.7103313 C320,10.6159057 309.536529,0 296.628388,0 L101.085898,0 Z M116.666973,198.376439 L116.666973,47.4206627 C116.666973,43.0555907 120.154797,39.5172189 124.45751,39.5172189 L273.256775,39.5172189 C277.559489,39.5172189 281.047313,43.0555907 281.047313,47.4206627 L281.047313,198.376439 C281.047313,202.741511 277.559489,206.279883 273.256775,206.279883 L124.45751,206.279883 C120.154797,206.279883 116.666973,202.741511 116.666973,198.376439 Z" id="full"/></g></g></svg>
